<svg id="POST_5" data-name="POST 5" xmlns="http://www.w3.org/2000/svg" viewBox="0 0 140.17 57.74"><defs><style>.cls-1,.cls-2{fill:#948d97;}.cls-1{fill-rule:evenodd;}</style></defs><polygon class="cls-1" points="88.11 17.38 78.42 27.07 73.33 21.98 76.44 18.87 77.78 20.21 76.05 21.95 78.45 24.35 81.17 21.64 72.29 12.75 69.61 15.43 71.98 17.8 73.7 16.09 75.05 17.49 73.27 19.23 63.65 28.85 58.56 23.76 61.67 20.65 63.01 21.99 61.27 23.73 63.68 26.13 66.4 23.41 57.52 14.53 54.8 17.25 57.17 19.62 58.93 17.87 60.28 19.27 57.14 22.34 52.06 17.27 61.76 7.57 66.83 12.65 63.71 15.76 62.37 14.42 64.07 12.72 61.75 10.31 58.98 13.07 67.86 21.95 70.58 19.24 68.17 16.83 66.48 18.52 65.14 17.18 68.24 14.06 68.25 14.07 76.53 5.79 81.6 10.87 78.48 13.98 77.14 12.64 78.84 10.94 76.52 8.53 73.75 11.29 82.63 20.18 85.35 17.46 82.94 15.05 81.25 16.75 79.91 15.4 83.01 12.28 88.11 17.38"/><path class="cls-2" d="M31.41,34.79h1l1.78,4.85h-1l-.41-1.21H31l-.41,1.21h-1Zm1.14,3-.66-2-.67,2Z"/><path class="cls-2" d="M34.35,39.08l2-2.35H34.43v-.64h2.88v.56l-2,2.34h2v.65h-3Z"/><path class="cls-2" d="M39.53,39.7a1.89,1.89,0,0,1-1-.25,1.74,1.74,0,0,1-.65-.67,2,2,0,0,1-.23-.91.86.86,0,0,1,0-.15c0-.06,0-.1,0-.14h2.77a1,1,0,0,0-.16-.47.89.89,0,0,0-.34-.3,1,1,0,0,0-.45-.1,1.06,1.06,0,0,0-.52.13.74.74,0,0,0-.33.35L37.85,37a1.55,1.55,0,0,1,.37-.48,1.78,1.78,0,0,1,.57-.33,2.09,2.09,0,0,1,.72-.12,2.18,2.18,0,0,1,.79.14,1.73,1.73,0,0,1,1,1,1.82,1.82,0,0,1,.14.7,1.93,1.93,0,0,1-.23.92,1.72,1.72,0,0,1-.64.67A1.9,1.9,0,0,1,39.53,39.7Zm0-.66a.94.94,0,0,0,.45-.11.89.89,0,0,0,.32-.32,1.09,1.09,0,0,0,.15-.46H38.59a1,1,0,0,0,.15.46,1,1,0,0,0,.34.32A1,1,0,0,0,39.53,39Z"/><path class="cls-2" d="M44.13,36.85a1.64,1.64,0,0,0-.74.16,1,1,0,0,0-.47.46v2.17H42V36.09h.84v.73a1.65,1.65,0,0,1,.49-.58A1.13,1.13,0,0,1,44,36h.18Z"/><path class="cls-2" d="M46.68,39.7a1.46,1.46,0,0,1-.73-.18,1.32,1.32,0,0,1-.51-.51v.63h-.79v-5h.91v2.08A1.34,1.34,0,0,1,46.79,36a1.46,1.46,0,0,1,.63.14,1.51,1.51,0,0,1,.5.41,1.92,1.92,0,0,1,.32.58,2.35,2.35,0,0,1,.11.71,2.08,2.08,0,0,1-.12.71,1.89,1.89,0,0,1-.36.58,1.61,1.61,0,0,1-.53.4A1.59,1.59,0,0,1,46.68,39.7Zm-.25-.77a.9.9,0,0,0,.4-.09,1,1,0,0,0,.31-.22.94.94,0,0,0,.2-.33,1.1,1.1,0,0,0,.08-.4,1.18,1.18,0,0,0-.12-.53A1,1,0,0,0,47,37a.88.88,0,0,0-.49-.14.85.85,0,0,0-.38.09,1.08,1.08,0,0,0-.32.24,1.15,1.15,0,0,0-.22.35v.84a.7.7,0,0,0,.13.24,1,1,0,0,0,.22.18,1.42,1.42,0,0,0,.25.12A.86.86,0,0,0,46.43,38.93Z"/><path class="cls-2" d="M48.73,38.59a1,1,0,0,1,.19-.6,1.17,1.17,0,0,1,.54-.4,2,2,0,0,1,.8-.15,3.57,3.57,0,0,1,.46,0,1.45,1.45,0,0,1,.4.11V37.4a.64.64,0,0,0-.2-.52.86.86,0,0,0-.6-.18,1.54,1.54,0,0,0-.56.1,3.47,3.47,0,0,0-.56.3l-.29-.6a3.25,3.25,0,0,1,.73-.35,2.88,2.88,0,0,1,.78-.11,1.69,1.69,0,0,1,1.19.38A1.34,1.34,0,0,1,52,37.49v1.13a.28.28,0,0,0,.05.2.25.25,0,0,0,.17.07v.75l-.23,0h-.16a.64.64,0,0,1-.42-.12.51.51,0,0,1-.17-.3l0-.18A1.65,1.65,0,0,1,50,39.7a1.34,1.34,0,0,1-.64-.14,1.07,1.07,0,0,1-.44-.4A1,1,0,0,1,48.73,38.59Zm2.22.18a1.83,1.83,0,0,0,.13-.16.28.28,0,0,0,0-.15v-.35a1.79,1.79,0,0,0-.35-.1,1.59,1.59,0,0,0-.36,0,1.08,1.08,0,0,0-.59.15.46.46,0,0,0-.23.4.49.49,0,0,0,.08.25.52.52,0,0,0,.22.19.71.71,0,0,0,.34.07,1.08,1.08,0,0,0,.72-.26Z"/><path class="cls-2" d="M52.83,40.33l.23.05.18,0a.33.33,0,0,0,.21-.06.62.62,0,0,0,.17-.23,2.86,2.86,0,0,0,.17-.46l-1.41-3.56h.95l1,2.63.85-2.63H56l-1.5,4.26a1.43,1.43,0,0,1-.25.43,1.21,1.21,0,0,1-.42.31,1.38,1.38,0,0,1-.55.11l-.22,0-.24-.06Z"/><path class="cls-2" d="M58.05,39.7a1.94,1.94,0,0,1-.78-.14,1.69,1.69,0,0,1-.6-.41,1.93,1.93,0,0,1-.38-.59,1.8,1.8,0,0,1-.13-.69,1.9,1.9,0,0,1,.23-.92,1.72,1.72,0,0,1,.65-.66A1.9,1.9,0,0,1,58,36a1.88,1.88,0,0,1,1,.25,1.57,1.57,0,0,1,.62.66l-.89.28a.77.77,0,0,0-.31-.31.87.87,0,0,0-.42-.1.89.89,0,0,0-.48.13.85.85,0,0,0-.33.37,1.07,1.07,0,0,0-.13.55,1.08,1.08,0,0,0,.13.54,1,1,0,0,0,.34.38.84.84,0,0,0,.47.14.81.81,0,0,0,.31-.06,1.1,1.1,0,0,0,.26-.15.51.51,0,0,0,.17-.22l.9.28a1.79,1.79,0,0,1-.36.47,1.73,1.73,0,0,1-.56.33A2,2,0,0,1,58.05,39.7Z"/><path class="cls-2" d="M60,38.59a1,1,0,0,1,.19-.6,1.15,1.15,0,0,1,.55-.4,2,2,0,0,1,.8-.15,3.42,3.42,0,0,1,.45,0,1.53,1.53,0,0,1,.41.11V37.4a.64.64,0,0,0-.21-.52.85.85,0,0,0-.59-.18,1.47,1.47,0,0,0-.56.1,2.8,2.8,0,0,0-.56.3l-.3-.6a3.25,3.25,0,0,1,.73-.35,2.88,2.88,0,0,1,.78-.11,1.69,1.69,0,0,1,1.19.38,1.34,1.34,0,0,1,.43,1.07v1.13a.34.34,0,0,0,.05.2.27.27,0,0,0,.17.07v.75l-.22,0h-.17a.61.61,0,0,1-.41-.12.52.52,0,0,1-.18-.3l0-.18a1.54,1.54,0,0,1-.58.46,1.63,1.63,0,0,1-.71.16,1.37,1.37,0,0,1-.64-.14,1.21,1.21,0,0,1-.44-.4A1,1,0,0,1,60,38.59Zm2.23.18.12-.16a.3.3,0,0,0,0-.15v-.35A1.89,1.89,0,0,0,62,38a1.59,1.59,0,0,0-.36,0,1,1,0,0,0-.58.15.44.44,0,0,0-.23.4.47.47,0,0,0,.07.25.52.52,0,0,0,.22.19.74.74,0,0,0,.34.07,1.09,1.09,0,0,0,.4-.07A1.15,1.15,0,0,0,62.22,38.77Z"/><path class="cls-2" d="M67.48,39.64h-.92v-2a1,1,0,0,0-.15-.62.5.5,0,0,0-.41-.2.77.77,0,0,0-.38.1,1.11,1.11,0,0,0-.33.25,1,1,0,0,0-.22.38v2.07h-.92V36.09H65v.66a1.27,1.27,0,0,1,.35-.38,1.51,1.51,0,0,1,.49-.25A2.14,2.14,0,0,1,66.4,36a1.12,1.12,0,0,1,.55.12.9.9,0,0,1,.33.31,1.7,1.7,0,0,1,.15.45,2.94,2.94,0,0,1,0,.51Z"/><path class="cls-2" d="M70,39.64V34.79h2.15a1.25,1.25,0,0,1,.61.14,1.64,1.64,0,0,1,.5.36,2.14,2.14,0,0,1,.32.52,1.64,1.64,0,0,1,0,1.18,1.59,1.59,0,0,1-.3.5,1.32,1.32,0,0,1-.46.32l1.1,1.83h-1l-1-1.63H71v1.63Zm1-2.46h1.18a.5.5,0,0,0,.31-.1.88.88,0,0,0,.22-.28,1,1,0,0,0,.08-.4.8.8,0,0,0-.1-.41.78.78,0,0,0-.24-.27.52.52,0,0,0-.31-.1H71Z"/><path class="cls-2" d="M76,39.7a1.94,1.94,0,0,1-.78-.14,1.76,1.76,0,0,1-.59-.4,1.72,1.72,0,0,1-.38-.58,1.8,1.8,0,0,1-.13-.69,1.93,1.93,0,0,1,.22-.93,1.84,1.84,0,0,1,.66-.67A1.92,1.92,0,0,1,76,36a1.88,1.88,0,0,1,1,.25,1.72,1.72,0,0,1,.64.67,1.87,1.87,0,0,1,.22.9.86.86,0,0,1,0,.16c0,.06,0,.11,0,.14H75.07a1.06,1.06,0,0,0,.17.47.83.83,0,0,0,.34.3A1,1,0,0,0,76,39a1,1,0,0,0,.52-.13.7.7,0,0,0,.33-.35l.79.22a1.58,1.58,0,0,1-.38.48,1.78,1.78,0,0,1-.57.33A2.09,2.09,0,0,1,76,39.7Zm-.94-2.12h1.87a.87.87,0,0,0-.15-.46.82.82,0,0,0-.33-.31A1,1,0,0,0,76,36.7a.93.93,0,0,0-.44.11.82.82,0,0,0-.33.31A1,1,0,0,0,75.05,37.58Z"/><path class="cls-2" d="M79.74,39.7a2.58,2.58,0,0,1-.88-.15,1.93,1.93,0,0,1-.71-.44l.32-.59a2.56,2.56,0,0,0,.64.38,1.59,1.59,0,0,0,.59.12.89.89,0,0,0,.43-.09.29.29,0,0,0,.16-.28.25.25,0,0,0-.09-.2,1.17,1.17,0,0,0-.25-.12l-.41-.12c-.26-.09-.49-.17-.66-.25a.92.92,0,0,1-.4-.31.77.77,0,0,1-.14-.47,1,1,0,0,1,.19-.61,1.17,1.17,0,0,1,.5-.39,2,2,0,0,1,.76-.14,2.19,2.19,0,0,1,.73.12,1.92,1.92,0,0,1,.62.38l-.37.58a2.45,2.45,0,0,0-.52-.31,1.44,1.44,0,0,0-.5-.1,1.26,1.26,0,0,0-.27,0,.43.43,0,0,0-.2.11.26.26,0,0,0-.08.22.24.24,0,0,0,.07.19.64.64,0,0,0,.22.13l.36.12a4.94,4.94,0,0,1,.72.25,1.12,1.12,0,0,1,.45.31.78.78,0,0,1,.15.51,1,1,0,0,1-.39.82A1.67,1.67,0,0,1,79.74,39.7Z"/><path class="cls-2" d="M83.94,39.7a1.47,1.47,0,0,1-.74-.18,1.31,1.31,0,0,1-.49-.5v2.07h-.92v-5h.8v.62a1.52,1.52,0,0,1,.52-.49,1.43,1.43,0,0,1,.72-.18,1.59,1.59,0,0,1,.66.14,1.69,1.69,0,0,1,.53.39,1.85,1.85,0,0,1,.35.59,1.78,1.78,0,0,1,.13.7,2.18,2.18,0,0,1-.2.93,1.75,1.75,0,0,1-.56.67A1.37,1.37,0,0,1,83.94,39.7Zm-.31-.77a.79.79,0,0,0,.38-.09,1.13,1.13,0,0,0,.3-.24,1.25,1.25,0,0,0,.19-.34,1.34,1.34,0,0,0,.06-.4,1.1,1.1,0,0,0-.07-.41,1.15,1.15,0,0,0-.21-.33A1,1,0,0,0,84,36.9a.9.9,0,0,0-.4-.08.82.82,0,0,0-.26,0,1.51,1.51,0,0,0-.26.12,1.29,1.29,0,0,0-.21.19.59.59,0,0,0-.13.23v.83a1.13,1.13,0,0,0,.22.36,1.11,1.11,0,0,0,.32.25A.88.88,0,0,0,83.63,38.93Z"/><path class="cls-2" d="M86.09,38.31V36.09H87v2a1,1,0,0,0,.15.61.51.51,0,0,0,.44.21,1.15,1.15,0,0,0,.36-.07,1.08,1.08,0,0,0,.32-.22,1.37,1.37,0,0,0,.25-.35v-2.2h.91v2.53a.34.34,0,0,0,0,.2.27.27,0,0,0,.17.07v.75l-.23,0h-.17a.65.65,0,0,1-.4-.12.43.43,0,0,1-.18-.3l0-.29a1.61,1.61,0,0,1-.61.55,1.9,1.9,0,0,1-.83.18,1,1,0,0,1-.84-.35A1.63,1.63,0,0,1,86.09,38.31Z"/><path class="cls-2" d="M92.37,39.7a1.49,1.49,0,0,1-.73-.18,1.29,1.29,0,0,1-.5-.51v.63h-.8v-5h.91v2.08a1.53,1.53,0,0,1,.5-.51,1.44,1.44,0,0,1,.73-.18,1.53,1.53,0,0,1,.64.14,1.47,1.47,0,0,1,.49.41,1.73,1.73,0,0,1,.32.58,2.25,2.25,0,0,1,0,1.42,1.87,1.87,0,0,1-.35.58,1.73,1.73,0,0,1-.53.4A1.67,1.67,0,0,1,92.37,39.7Zm-.25-.77a.9.9,0,0,0,.4-.09,1,1,0,0,0,.31-.22,1.15,1.15,0,0,0,.21-.33,1.09,1.09,0,0,0,.07-.4,1.18,1.18,0,0,0-.12-.53,1,1,0,0,0-.33-.4.89.89,0,0,0-.87-.05,1.22,1.22,0,0,0-.32.24,1.38,1.38,0,0,0-.22.35v.84a.58.58,0,0,0,.14.24.91.91,0,0,0,.21.18,1.23,1.23,0,0,0,.26.12A.8.8,0,0,0,92.12,38.93Z"/><path class="cls-2" d="M94.66,34.65h.91V38.5a.49.49,0,0,0,.08.33.3.3,0,0,0,.23.09l.23,0,.2-.07.12.7a2,2,0,0,1-.43.14,2.39,2.39,0,0,1-.44,0,.8.8,0,0,1-.9-.88Z"/><path class="cls-2" d="M96.83,35.56v-.91h.91v.91Zm0,4.08V36.06h.91v3.58Z"/><path class="cls-2" d="M101,39.64l-1-1.54-.49.48v1.06h-.91v-5h.91v3l1.44-1.59h1l-1.33,1.51,1.43,2Z"/><path class="cls-2" d="M102.1,38.59a1,1,0,0,1,.19-.6,1.15,1.15,0,0,1,.55-.4,2,2,0,0,1,.79-.15,3.57,3.57,0,0,1,.46,0,1.36,1.36,0,0,1,.4.11V37.4a.64.64,0,0,0-.2-.52.85.85,0,0,0-.59-.18,1.47,1.47,0,0,0-.56.1,2.8,2.8,0,0,0-.56.3l-.3-.6a3.25,3.25,0,0,1,.73-.35,2.88,2.88,0,0,1,.78-.11,1.69,1.69,0,0,1,1.19.38,1.34,1.34,0,0,1,.43,1.07v1.13a.34.34,0,0,0,0,.2.25.25,0,0,0,.17.07v.75l-.22,0h-.17a.61.61,0,0,1-.41-.12.47.47,0,0,1-.18-.3l0-.18a1.54,1.54,0,0,1-.58.46,1.63,1.63,0,0,1-.71.16,1.34,1.34,0,0,1-.64-.14,1.14,1.14,0,0,1-.44-.4A1,1,0,0,1,102.1,38.59Zm2.22.18a1.83,1.83,0,0,0,.13-.16.28.28,0,0,0,0-.15v-.35a1.61,1.61,0,0,0-.35-.1,1.59,1.59,0,0,0-.36,0,1.08,1.08,0,0,0-.59.15.45.45,0,0,0-.22.4.47.47,0,0,0,.07.25.52.52,0,0,0,.22.19.71.71,0,0,0,.34.07,1.08,1.08,0,0,0,.72-.26Z"/><path class="cls-2" d="M107.58,39.7a2.49,2.49,0,0,1-.87-.15,1.89,1.89,0,0,1-.72-.44l.33-.59a2.35,2.35,0,0,0,.63.38,1.64,1.64,0,0,0,.6.12.84.84,0,0,0,.42-.09.29.29,0,0,0,.16-.28.25.25,0,0,0-.09-.2,1.17,1.17,0,0,0-.25-.12l-.41-.12c-.26-.09-.48-.17-.66-.25a.92.92,0,0,1-.4-.31.77.77,0,0,1-.13-.47,1,1,0,0,1,.18-.61,1.23,1.23,0,0,1,.5-.39,2,2,0,0,1,.76-.14,2.19,2.19,0,0,1,.73.12,1.82,1.82,0,0,1,.62.38l-.37.58a2.22,2.22,0,0,0-.52-.31,1.44,1.44,0,0,0-.5-.1,1.26,1.26,0,0,0-.27,0,.43.43,0,0,0-.2.11.29.29,0,0,0-.08.22.24.24,0,0,0,.07.19.64.64,0,0,0,.22.13l.36.12a5.11,5.11,0,0,1,.73.25,1.15,1.15,0,0,1,.44.31.78.78,0,0,1,.15.51,1,1,0,0,1-.39.82A1.65,1.65,0,0,1,107.58,39.7Z"/><path class="cls-2" d="M109.63,39.64V36.09h.92v3.55Z"/><path class="cls-2" d="M41.38,47.83V44.65L40.13,47h-.52l-1.24-2.36v3.18h-.95V43h1l1.44,2.76L41.31,43h1v4.85Z"/><path class="cls-2" d="M44.81,47.89a1.92,1.92,0,0,1-1-.25,1.72,1.72,0,0,1-.64-.67,1.89,1.89,0,0,1-.23-.91v-.15c0-.06,0-.1,0-.14h2.76a.91.91,0,0,0-.16-.47.89.89,0,0,0-.34-.3.92.92,0,0,0-.44-.1,1,1,0,0,0-.52.13.72.72,0,0,0-.34.35l-.77-.22a1.41,1.41,0,0,1,.37-.48,1.63,1.63,0,0,1,.56-.33,2.26,2.26,0,0,1,1.51,0,1.76,1.76,0,0,1,.59.4,1.88,1.88,0,0,1,.38.58,2,2,0,0,1,.13.7,1.9,1.9,0,0,1-.23.92,1.72,1.72,0,0,1-.64.67A1.88,1.88,0,0,1,44.81,47.89Zm0-.66a.82.82,0,0,0,.44-.11,1,1,0,0,0,.32-.31.93.93,0,0,0,.15-.47H43.87a1.05,1.05,0,0,0,.16.47,1,1,0,0,0,.34.31A.84.84,0,0,0,44.82,47.23Z"/><path class="cls-2" d="M47.07,46.06a2.18,2.18,0,0,1,.2-.93,1.67,1.67,0,0,1,.57-.66,1.47,1.47,0,0,1,.83-.24,1.33,1.33,0,0,1,.71.19,1.38,1.38,0,0,1,.49.5V42.84h.92v4a.3.3,0,0,0,.05.21.22.22,0,0,0,.16.07v.75a2.13,2.13,0,0,1-.39,0,.69.69,0,0,1-.41-.12.49.49,0,0,1-.18-.32v-.22a1.33,1.33,0,0,1-.54.51,1.45,1.45,0,0,1-.7.17,1.53,1.53,0,0,1-.68-.14,1.5,1.5,0,0,1-.54-.39,1.89,1.89,0,0,1-.36-.58A2.09,2.09,0,0,1,47.07,46.06Zm2.8.47v-.84a.91.91,0,0,0-.21-.35,1.31,1.31,0,0,0-.34-.24A.81.81,0,0,0,49,45a.92.92,0,0,0-.38.08,1.13,1.13,0,0,0-.3.24,1.25,1.25,0,0,0-.19.34,1.4,1.4,0,0,0-.06.41,1.05,1.05,0,0,0,.07.4,1.08,1.08,0,0,0,.21.34,1.16,1.16,0,0,0,.31.22,1.1,1.1,0,0,0,.4.08.85.85,0,0,0,.26,0,1.15,1.15,0,0,0,.25-.12.91.91,0,0,0,.21-.18A.75.75,0,0,0,49.87,46.53Z"/><path class="cls-2" d="M53.3,47.89a1.92,1.92,0,0,1-1-.25,1.72,1.72,0,0,1-.64-.67,1.89,1.89,0,0,1-.23-.91v-.15c0-.06,0-.1,0-.14H54.2A.83.83,0,0,0,54,45.3a.89.89,0,0,0-.34-.3.92.92,0,0,0-.44-.1,1,1,0,0,0-.52.13.74.74,0,0,0-.33.35l-.78-.22a1.41,1.41,0,0,1,.37-.48,1.73,1.73,0,0,1,.56-.33,2.26,2.26,0,0,1,1.51,0,1.76,1.76,0,0,1,.59.4,1.88,1.88,0,0,1,.38.58,1.82,1.82,0,0,1,.13.7A1.9,1.9,0,0,1,55,47a1.74,1.74,0,0,1-.65.67A1.88,1.88,0,0,1,53.3,47.89Zm0-.66a.8.8,0,0,0,.44-.11,1.08,1.08,0,0,0,.33-.31,1,1,0,0,0,.14-.47H52.37a.93.93,0,0,0,.15.47,1,1,0,0,0,.34.31A.84.84,0,0,0,53.31,47.23Z"/><path class="cls-2" d="M59.1,47.83h-.91v-2a1,1,0,0,0-.15-.62.5.5,0,0,0-.42-.2.86.86,0,0,0-.37.1,1.2,1.2,0,0,0-.34.25,1.11,1.11,0,0,0-.22.38v2.07h-.91V44.28h.82v.66a1.42,1.42,0,0,1,.35-.38,1.62,1.62,0,0,1,.49-.25,2.2,2.2,0,0,1,.58-.08,1.09,1.09,0,0,1,.55.12.77.77,0,0,1,.33.31,1.42,1.42,0,0,1,.16.45,2.92,2.92,0,0,1,0,.51Z"/><path class="cls-2" d="M59.9,43.75v-.91h.92v.91Zm0,4.08V44.25h.92v3.58Z"/><path class="cls-2" d="M61.72,48.52l.23,0,.18,0a.37.37,0,0,0,.21-.06.76.76,0,0,0,.17-.23,4.31,4.31,0,0,0,.17-.46l-1.41-3.56h.95l1,2.63L64,44.28h.88l-1.5,4.26a1.43,1.43,0,0,1-.25.43,1.21,1.21,0,0,1-.42.31,1.43,1.43,0,0,1-.56.11l-.21,0a1.05,1.05,0,0,1-.24-.06Z"/><path class="cls-2" d="M65.47,48.52l.23,0,.18,0a.38.38,0,0,0,.22-.06.76.76,0,0,0,.16-.23,2.86,2.86,0,0,0,.17-.46L65,44.28h1l1,2.63.85-2.63h.87l-1.5,4.26a1.24,1.24,0,0,1-.25.43,1.21,1.21,0,0,1-.42.31,1.38,1.38,0,0,1-.55.11l-.22,0-.24-.06Z"/><path class="cls-2" d="M70.66,47.89a1.92,1.92,0,0,1-1-.25A1.72,1.72,0,0,1,69,47a2,2,0,0,1-.24-.91s0-.09,0-.15,0-.1,0-.14h2.76a.91.91,0,0,0-.16-.47.89.89,0,0,0-.34-.3,1,1,0,0,0-.44-.1,1,1,0,0,0-.52.13.72.72,0,0,0-.34.35L69,45.16a1.51,1.51,0,0,1,.36-.48,1.78,1.78,0,0,1,.57-.33,2.09,2.09,0,0,1,.72-.12,2.14,2.14,0,0,1,.79.14,1.76,1.76,0,0,1,.59.4,1.88,1.88,0,0,1,.38.58,2,2,0,0,1,.13.7,1.9,1.9,0,0,1-.23.92,1.72,1.72,0,0,1-.64.67A1.88,1.88,0,0,1,70.66,47.89Zm0-.66a.82.82,0,0,0,.44-.11,1,1,0,0,0,.32-.31.93.93,0,0,0,.15-.47H69.72a1.05,1.05,0,0,0,.16.47,1.08,1.08,0,0,0,.33.31A.9.9,0,0,0,70.67,47.23Z"/><path class="cls-2" d="M75.23,47.65l-.28.11-.36.1a2.34,2.34,0,0,1-.38,0,1.17,1.17,0,0,1-.46-.08.84.84,0,0,1-.34-.28,1,1,0,0,1-.12-.51V45h-.47v-.71h.47V43.12h.91v1.16H75V45H74.2v1.72a.37.37,0,0,0,.1.26.36.36,0,0,0,.24.09.87.87,0,0,0,.28-.05l.22-.08Z"/><path class="cls-2" d="M78.37,44.71v3.12h-.94V43h.75l2.51,3.19V43h.94v4.84h-.79Z"/><path class="cls-2" d="M82.26,46.78a1,1,0,0,1,.2-.6,1.24,1.24,0,0,1,.54-.4,2,2,0,0,1,.8-.14l.46,0a1.56,1.56,0,0,1,.4.11v-.19a.69.69,0,0,0-.2-.52.9.9,0,0,0-.6-.18,1.74,1.74,0,0,0-.56.1,3.1,3.1,0,0,0-.56.3l-.29-.6a2.77,2.77,0,0,1,.72-.34,2.56,2.56,0,0,1,.79-.12,1.75,1.75,0,0,1,1.19.38,1.36,1.36,0,0,1,.42,1.07v1.13a.34.34,0,0,0,.05.2.27.27,0,0,0,.17.07v.75l-.22,0H85.4a.61.61,0,0,1-.41-.12.51.51,0,0,1-.17-.3l0-.18a1.58,1.58,0,0,1-.59.46,1.6,1.6,0,0,1-.71.16,1.33,1.33,0,0,1-.63-.14,1.17,1.17,0,0,1-.45-.4A1.11,1.11,0,0,1,82.26,46.78Zm2.23.18a.83.83,0,0,0,.12-.16.3.3,0,0,0,0-.15V46.3a1.89,1.89,0,0,0-.36-.1,1.47,1.47,0,0,0-.36,0,1,1,0,0,0-.58.15.46.46,0,0,0-.23.4.45.45,0,0,0,.07.25.59.59,0,0,0,.22.19.74.74,0,0,0,.34.08,1.19,1.19,0,0,0,.41-.08A.91.91,0,0,0,84.49,47Z"/><path class="cls-2" d="M86.19,47.27l2-2.34H86.27v-.65h2.87v.56l-2,2.35h2v.64h-3Z"/><path class="cls-2" d="M89.79,43.75v-.91h.92v.91Zm0,4.08V44.25h.92v3.58Z"/><path class="cls-2" d="M93.66,45a1.75,1.75,0,0,0-.74.16,1,1,0,0,0-.47.46v2.17h-.92V44.28h.84V45a1.74,1.74,0,0,1,.49-.58,1.21,1.21,0,0,1,.62-.23h.18Z"/><path class="cls-2" d="M94.17,42.84h.91v3.85a.49.49,0,0,0,.08.33.3.3,0,0,0,.23.09.83.83,0,0,0,.22,0,1,1,0,0,0,.21-.07l.12.7a1.55,1.55,0,0,1-.43.14,2.39,2.39,0,0,1-.44,0,.79.79,0,0,1-.9-.88Z"/><path class="cls-2" d="M96.34,43.75v-.91h.91v.91Zm0,4.08V44.25h.91v3.58Z"/><path class="cls-2" d="M98.15,48.52l.23,0,.18,0a.38.38,0,0,0,.22-.06.76.76,0,0,0,.16-.23,2.76,2.76,0,0,0,.18-.46L97.7,44.28h1l1,2.63.85-2.63h.87l-1.5,4.26a1.24,1.24,0,0,1-.25.43,1.27,1.27,0,0,1-.41.31,1.43,1.43,0,0,1-.56.11l-.22,0-.24-.06Z"/><path class="cls-2" d="M101.83,43.75v-.91h.92v.91Zm0,4.08V44.25h.92v3.58Z"/></svg>