<svg id="POST_5" data-name="POST 5" xmlns="http://www.w3.org/2000/svg" viewBox="0 0 140.17 57.74"><defs><style>.cls-1{fill:#101c8e;}</style></defs><path class="cls-1" d="M27.19,37.12A2.86,2.86,0,0,1,30,34.26h3.3l2.29-10.12.95-4.21H29c-.39,0-.72.38-.88.92h0l-.05.24h0l-.38,1.67-.31,1.36L25.81,31a6.9,6.9,0,0,1-.27,1.15c-.49,1.52-1.46,2.56-2.59,2.56h-.18V24.22h-7a1.07,1.07,0,0,0-1,1.15v8.21a1.07,1.07,0,0,0,1,1.15h4v9.36a1.08,1.08,0,0,0,1,1.16h6.52Z"/><path class="cls-1" d="M37.48,35.47l2.88,9h-6.6c-.07,0-.15-.09-.19-.2l0-.06L32.19,40l-1-3.19v0h0s0,0,0-.07l0,0-.37-1.17h6.72m.54-.74H30l-.28,0,.68,2.13s0,0,0,0a.64.64,0,0,1,0,.07h0l1,3.21,1.36,4.27a.64.64,0,0,0,0,.07,1,1,0,0,0,.89.71h7.61L38,34.73Z"/><path class="cls-1" d="M49.48,40.2V34.36L46.13,24h2.56a1,1,0,0,1,.94.69L51.26,30,53,24h3.19L52.86,34.36v6.81h-2.4a1,1,0,0,1-1-1"/><path class="cls-1" d="M60.29,35.25h2.05l-1-6.94ZM56,41.17l3.18-16.4a1,1,0,0,1,1-.79h3.07l3.32,17.19H64.13a1,1,0,0,1-1-.82l-.49-3H60l-.66,3.77Z"/><path class="cls-1" d="M71.66,31.31h1A2.78,2.78,0,0,0,74,31a1.53,1.53,0,0,0,.69-.84,4.26,4.26,0,0,0,.2-1.39A3.14,3.14,0,0,0,74.47,27a1.84,1.84,0,0,0-1.62-.63H71.66Zm-3.5,9.86V25a1,1,0,0,1,1-1h3.48a10,10,0,0,1,3,.39,3.52,3.52,0,0,1,1.91,1.4,4.92,4.92,0,0,1,.67,2.75A8.76,8.76,0,0,1,78,30.4a3.62,3.62,0,0,1-.64,1.42,3,3,0,0,1-1.28,1l2.37,8.38H75.63a1,1,0,0,1-.95-.73l-1.79-7H71.66v7.78Z"/><path class="cls-1" d="M84,35.25H86l-1-6.94Zm-4.27,5.92,3.18-16.4a1,1,0,0,1,1-.79H86.9l3.31,17.19H87.79a1,1,0,0,1-1-.82l-.48-3H83.63L83,41.17Z"/><path class="cls-1" d="M95.33,38.73h.74a2.45,2.45,0,0,0,1.39-.3,1.37,1.37,0,0,0,.52-.92A8.82,8.82,0,0,0,98.09,36V28.93A6,6,0,0,0,98,27.5a1.25,1.25,0,0,0-.55-.8,2.7,2.7,0,0,0-1.35-.26h-.72Zm-3.51,2.44V24H96a8.4,8.4,0,0,1,3.4.56,3.33,3.33,0,0,1,1.73,1.77,7.88,7.88,0,0,1,.51,3.06v6.26a8.3,8.3,0,0,1-.51,3.15,3.4,3.4,0,0,1-1.71,1.81,7.73,7.73,0,0,1-3.34.58Z"/><path class="cls-1" d="M104,41.17V25a1,1,0,0,1,1-1h2.5V41.17Z"/><path class="cls-1" d="M114.92,41.41a5.52,5.52,0,0,1-3-.72,3.83,3.83,0,0,1-1.56-2,9,9,0,0,1-.44-3V29.52a9.24,9.24,0,0,1,.44-3.06,3.74,3.74,0,0,1,1.56-2,5.62,5.62,0,0,1,3-.7,5.72,5.72,0,0,1,2.89.62,3.38,3.38,0,0,1,1.49,1.74,7.21,7.21,0,0,1,.43,2.61v1.44h-3.39V28.57a9.84,9.84,0,0,0-.06-1.12,1.57,1.57,0,0,0-.36-.85,1.24,1.24,0,0,0-1-.32,1.36,1.36,0,0,0-1,.33,1.6,1.6,0,0,0-.4.89,7.29,7.29,0,0,0-.09,1.19v7.82a5.86,5.86,0,0,0,.12,1.26,1.51,1.51,0,0,0,.44.83,1.42,1.42,0,0,0,1,.28,1.21,1.21,0,0,0,1-.33,1.64,1.64,0,0,0,.36-.88,8.57,8.57,0,0,0,.08-1.16V34.83h2.42a1,1,0,0,1,1,1v.45a7.78,7.78,0,0,1-.42,2.66,3.57,3.57,0,0,1-1.46,1.83,5.48,5.48,0,0,1-2.93.67"/><path class="cls-1" d="M121.92,41.17V25a1,1,0,0,1,1-1h2.5V41.17Z"/></svg>