<svg xmlns="http://www.w3.org/2000/svg" xmlns:xlink="http://www.w3.org/1999/xlink" viewBox="0 0 140.17 57.74"><defs><style>.cls-1{fill:none;}.cls-2{clip-path:url(#clip-path);}.cls-3{clip-path:url(#clip-path-2);}.cls-4{fill:url(#linear-gradient);}.cls-5{clip-path:url(#clip-path-3);}.cls-6{fill:url(#linear-gradient-2);}.cls-7{clip-path:url(#clip-path-4);}.cls-8{fill:url(#linear-gradient-3);}.cls-9{clip-path:url(#clip-path-5);}.cls-10{fill:url(#linear-gradient-4);}.cls-11{fill:#23407d;}.cls-12{clip-path:url(#clip-path-7);}.cls-13{clip-path:url(#clip-path-9);}.cls-14{clip-path:url(#clip-path-11);}.cls-15{clip-path:url(#clip-path-13);}.cls-16{clip-path:url(#clip-path-15);}.cls-17{clip-path:url(#clip-path-17);}.cls-18{clip-path:url(#clip-path-19);}.cls-19{clip-path:url(#clip-path-21);}.cls-20{clip-path:url(#clip-path-23);}.cls-21{clip-path:url(#clip-path-25);}.cls-22{clip-path:url(#clip-path-27);}.cls-23{clip-path:url(#clip-path-29);}.cls-24{clip-path:url(#clip-path-31);}</style><clipPath id="clip-path"><rect class="cls-1" x="8.58" y="-15.37" width="123.01" height="86.98"/></clipPath><clipPath id="clip-path-2"><path class="cls-1" d="M43.2,11,29.59,11a2.3,2.3,0,0,0-2.1,3.24L32.18,24.9c.86,2,2.8,2.46,4.94,2.46l9.85,0c2.08,0,3.38,2.95,2.44,4.8l-3.26,6.7a.56.56,0,0,0,.49.83H57.41A4.06,4.06,0,0,0,61,37.33L70.38,18a.88.88,0,0,0-.77-1.29l-10.48,0a3.53,3.53,0,0,0-3.16,2L53.22,24.3h-1.9L46.69,13.17A3.89,3.89,0,0,0,43.21,11h0"/></clipPath><linearGradient id="linear-gradient" x1="2085.93" y1="-780.55" x2="2087.12" y2="-780.55" gradientTransform="matrix(36.87, 0, 0, -36.87, -76889.83, -28756.78)" gradientUnits="userSpaceOnUse"><stop offset="0" stop-color="#262d61"/><stop offset="1" stop-color="#2656a2"/></linearGradient><clipPath id="clip-path-3"><path class="cls-1" d="M91.13,16.77l-10.48,0a3.52,3.52,0,0,0-3.16,2L74.81,24.3h-6L66.6,28.87h1.53a2.79,2.79,0,0,1,2.5,4l-2.87,5.92c-.2.44-.05.85.38.84l10.8,0a4,4,0,0,0,3.61-2.27l9.39-19.33a.89.89,0,0,0-.81-1.28h0"/></clipPath><linearGradient id="linear-gradient-2" x1="2068.32" y1="-780.14" x2="2069.5" y2="-780.14" gradientTransform="matrix(21.71, 0, 0, -21.71, -44830.94, -16906.54)" gradientUnits="userSpaceOnUse"><stop offset="0" stop-color="#18a8e1"/><stop offset="1" stop-color="#2656a2"/></linearGradient><clipPath id="clip-path-4"><path class="cls-1" d="M97.41,16.76a2.6,2.6,0,0,0-2.11,1.42l-1.75,3.58a.34.34,0,0,0,.31.49h9.56c.19,0,.26.15.17.34a.61.61,0,0,1-.5.34H93.2a.34.34,0,0,0-.31.19l-1.58,3.24c-.38.78-.06,1.42.72,1.42h11.32a2.64,2.64,0,0,0,2.11-1.42l.38-.79a.34.34,0,0,0-.3-.49H96c-.19,0-.27-.15-.18-.33a.62.62,0,0,1,.5-.34h9.9a.34.34,0,0,0,.3-.19l3-6c.38-.79.06-1.42-.72-1.42Z"/></clipPath><linearGradient id="linear-gradient-3" x1="2052.22" y1="-779.7" x2="2053.42" y2="-779.7" gradientTransform="matrix(15.76, 0, 0, -15.76, -32253.01, -12266.17)" gradientUnits="userSpaceOnUse"><stop offset="0" stop-color="#18a8e1"/><stop offset="0.03" stop-color="#19a1db"/><stop offset="0.17" stop-color="#1e86c7"/><stop offset="0.33" stop-color="#2170b6"/><stop offset="0.5" stop-color="#2461ab"/><stop offset="0.7" stop-color="#2659a4"/><stop offset="1" stop-color="#2656a2"/></linearGradient><clipPath id="clip-path-5"><path class="cls-1" d="M91.61,28.65a2.62,2.62,0,0,0-2.11,1.42l-.1.21a.35.35,0,0,0,.31.5h9.55c.19,0,.27.15.18.33a.64.64,0,0,1-.51.34H89a.34.34,0,0,0-.31.19L88.07,33a.34.34,0,0,0,.31.49h9.55c.19,0,.27.15.17.34a.61.61,0,0,1-.5.34H87.71a.34.34,0,0,0-.31.19l-1.89,3.88c-.38.79-.06,1.42.72,1.42H97.55a2.62,2.62,0,0,0,2.11-1.42l4-8.18c.38-.78.06-1.42-.72-1.42Z"/></clipPath><linearGradient id="linear-gradient-4" x1="2052.17" y1="-779.81" x2="2053.37" y2="-779.81" gradientTransform="matrix(15.76, 0, 0, -15.76, -32257.94, -12256.01)" xlink:href="#linear-gradient-3"/><clipPath id="clip-path-7"><polygon class="cls-1" points="47.82 41.25 46.8 42.95 45.78 41.25 44.84 41.25 46.32 43.7 46.32 45.07 47.2 45.07 47.2 43.71 48.69 41.25 47.82 41.25"/></clipPath><clipPath id="clip-path-9"><path class="cls-1" d="M50.67,42.12l.61,1.46H50.07Zm-.43-.87-1.7,3.82h.91l.33-.82h1.78l.33.82h.93l-1.71-3.82Z"/></clipPath><clipPath id="clip-path-11"><path class="cls-1" d="M54.32,42H55c.54,0,.81.25.81.67s-.27.66-.81.66h-.72Zm-.88-.72v3.82h.88V44h.81l.74,1.07h1L56,43.84a1.23,1.23,0,0,0,.79-1.2c0-.86-.64-1.39-1.66-1.39Z"/></clipPath><clipPath id="clip-path-13"><path class="cls-1" d="M59.3,42.12l.6,1.46H58.69Zm-.44-.87-1.7,3.82h.91l.34-.82h1.77l.34.82h.92l-1.7-3.82Z"/></clipPath><clipPath id="clip-path-15"><path class="cls-1" d="M63,42h.8a1.18,1.18,0,1,1,0,2.36H63Zm-.89-.73v3.82H63.8a1.92,1.92,0,1,0,0-3.82Z"/></clipPath><clipPath id="clip-path-17"><rect class="cls-1" x="66.78" y="41.25" width="0.88" height="3.82"/></clipPath><clipPath id="clip-path-19"><path class="cls-1" d="M68.55,43.16a2.1,2.1,0,0,0,3.64,1.29l-.56-.52a1.22,1.22,0,0,1-1,.45,1.22,1.22,0,1,1,0-2.44,1.24,1.24,0,0,1,1,.44l.56-.52a2.1,2.1,0,0,0-3.64,1.3"/></clipPath><clipPath id="clip-path-21"><rect class="cls-1" x="73.01" y="41.25" width="0.88" height="3.82"/></clipPath><clipPath id="clip-path-23"><polygon class="cls-1" points="79.39 41.25 79.39 42.76 77.66 42.76 77.66 41.25 76.78 41.25 76.78 45.07 77.66 45.07 77.66 43.5 79.39 43.5 79.39 45.07 80.28 45.07 80.28 41.25 79.39 41.25"/></clipPath><clipPath id="clip-path-25"><path class="cls-1" d="M82.08,43.53h2.2a1.12,1.12,0,0,1-2.2,0m-.6-1.72.53.57a1.57,1.57,0,0,1,1.1-.44,1.15,1.15,0,0,1,1.18,1H81.16v.18a2,2,0,1,0,2-1.94,2.35,2.35,0,0,0-1.64.63"/></clipPath><clipPath id="clip-path-27"><polygon class="cls-1" points="86.08 41.25 86.08 45.07 86.96 45.07 86.96 43.68 88.73 43.68 88.73 42.97 86.96 42.97 86.96 41.96 88.96 41.96 88.96 41.25 86.08 41.25"/></clipPath><clipPath id="clip-path-29"><polygon class="cls-1" points="89.38 41.25 89.38 41.97 90.6 41.97 90.6 45.07 91.48 45.07 91.48 41.97 92.7 41.97 92.7 41.25 89.38 41.25"/></clipPath><clipPath id="clip-path-31"><path class="cls-1" d="M94,43.53h2.2a1.12,1.12,0,0,1-2.2,0m-.6-1.72.53.57a1.57,1.57,0,0,1,1.1-.44,1.16,1.16,0,0,1,1.18,1H93.1v.18a2,2,0,1,0,2-1.94,2.33,2.33,0,0,0-1.64.63"/></clipPath></defs><g id="POST_1" data-name="POST 1"><g class="cls-2"><g class="cls-3"><rect class="cls-4" x="26.81" y="11.01" width="43.86" height="28.66"/></g><g class="cls-5"><rect class="cls-6" x="66.6" y="16.77" width="25.62" height="22.91"/></g><g class="cls-7"><rect class="cls-8" x="90.93" y="16.76" width="18.9" height="11.02"/></g><g class="cls-9"><rect class="cls-10" x="85.13" y="28.65" width="18.9" height="11.02"/></g><g class="cls-2"><polygon class="cls-11" points="47.82 41.25 46.8 42.95 45.78 41.25 44.84 41.25 46.32 43.7 46.32 45.07 47.2 45.07 47.2 43.71 48.69 41.25 47.82 41.25"/></g><g class="cls-12"><rect class="cls-11" x="44.15" y="40.54" width="5.23" height="5.24" transform="matrix(0.5, -0.87, 0.87, 0.5, -13.99, 62.08)"/></g><g class="cls-2"><path class="cls-11" d="M50.67,42.12l.61,1.46H50.07Zm-.43-.87-1.7,3.82h.91l.33-.82h1.78l.33.82h.93l-1.71-3.82Z"/></g><g class="cls-13"><rect class="cls-11" x="47.96" y="40.35" width="5.45" height="5.61" transform="translate(-12.04 65.47) rotate(-60)"/></g><g class="cls-2"><path class="cls-11" d="M54.32,42H55c.54,0,.81.25.81.66s-.27.67-.81.67h-.72Zm-.88-.72v3.82h.88V44h.81l.74,1.07h1L56,43.84a1.24,1.24,0,0,0,.79-1.21c0-.85-.64-1.38-1.66-1.38Z"/></g><g class="cls-14"><rect class="cls-11" x="52.63" y="40.74" width="5" height="4.84" transform="translate(-9.81 69.32) rotate(-60)"/></g><g class="cls-2"><path class="cls-11" d="M59.3,42.12l.6,1.46H58.69Zm-.44-.87-1.7,3.82h.91l.34-.82h1.77l.34.82h.92l-1.7-3.82Z"/></g><g class="cls-15"><rect class="cls-11" x="56.58" y="40.35" width="5.44" height="5.61" transform="translate(-7.72 72.94) rotate(-60)"/></g><g class="cls-2"><path class="cls-11" d="M63,42h.8a1.18,1.18,0,1,1,0,2.36H63Zm-.89-.73v3.82H63.8a1.92,1.92,0,1,0,0-3.82Z"/></g><g class="cls-16"><rect class="cls-11" x="61.37" y="40.54" width="5.22" height="5.23" transform="translate(-5.39 76.99) rotate(-60)"/></g><g class="cls-2"><rect class="cls-11" x="66.78" y="41.25" width="0.88" height="3.82"/></g><g class="cls-17"><rect class="cls-11" x="65.35" y="41.82" width="3.75" height="2.67" transform="translate(-3.76 79.8) rotate(-60)"/></g><g class="cls-2"><path class="cls-11" d="M68.55,43.16a2.1,2.1,0,0,0,3.64,1.29l-.56-.52a1.22,1.22,0,0,1-1,.45,1.22,1.22,0,1,1,0-2.44,1.24,1.24,0,0,1,1,.44l.56-.52a2.1,2.1,0,0,0-3.64,1.3"/></g><g class="cls-18"><rect class="cls-11" x="67.75" y="40.59" width="5.24" height="5.13" transform="matrix(0.5, -0.87, 0.87, 0.5, -2.19, 82.53)"/></g><g class="cls-2"><rect class="cls-11" x="73.01" y="41.25" width="0.88" height="3.82"/></g><g class="cls-19"><rect class="cls-11" x="71.58" y="41.82" width="3.75" height="2.67" transform="translate(-0.65 85.19) rotate(-60)"/></g><g class="cls-2"><polygon class="cls-11" points="79.39 41.25 79.39 42.76 77.66 42.76 77.66 41.25 76.78 41.25 76.78 45.07 77.66 45.07 77.66 43.5 79.39 43.5 79.39 45.07 80.28 45.07 80.28 41.25 79.39 41.25"/></g><g class="cls-20"><rect class="cls-11" x="76" y="40.69" width="5.06" height="4.94" transform="matrix(0.5, -0.87, 0.87, 0.5, 1.89, 89.59)"/></g><g class="cls-2"><path class="cls-11" d="M82.08,43.53h2.2a1.12,1.12,0,0,1-2.2,0m-.6-1.72.53.57a1.57,1.57,0,0,1,1.1-.44,1.15,1.15,0,0,1,1.18,1H81.16v.18a2,2,0,1,0,2-1.94,2.35,2.35,0,0,0-1.64.63"/></g><g class="cls-21"><rect class="cls-11" x="80.46" y="40.43" width="5.43" height="5.46" transform="translate(4.21 93.61) rotate(-60)"/></g><g class="cls-2"><polygon class="cls-11" points="86.08 41.25 86.08 45.07 86.96 45.07 86.96 43.68 88.73 43.68 88.73 42.97 86.96 42.97 86.96 41.96 88.96 41.96 88.96 41.25 86.08 41.25"/></g><g class="cls-22"><rect class="cls-11" x="85.15" y="40.96" width="4.75" height="4.41" transform="translate(6.38 97.37) rotate(-60)"/></g><g class="cls-2"><polygon class="cls-11" points="89.38 41.25 89.38 41.97 90.6 41.97 90.6 45.07 91.48 45.07 91.48 41.97 92.7 41.97 92.7 41.25 89.38 41.25"/></g><g class="cls-23"><rect class="cls-11" x="88.56" y="40.76" width="4.97" height="4.79" transform="translate(8.14 100.42) rotate(-60)"/></g><g class="cls-2"><path class="cls-11" d="M94,43.53h2.2a1.12,1.12,0,0,1-2.2,0m-.6-1.72.53.57a1.57,1.57,0,0,1,1.1-.44,1.16,1.16,0,0,1,1.18,1H93.1v.18a2,2,0,1,0,2-1.94,2.33,2.33,0,0,0-1.64.63"/></g><g class="cls-24"><rect class="cls-11" x="92.4" y="40.43" width="5.43" height="5.46" transform="translate(10.18 103.95) rotate(-60)"/></g></g></g></svg>